<?xml version="1.0" encoding="UTF-8"?>
<svg
  xmlns="http://www.w3.org/2000/svg"
  viewBox="40 100 724 428"
  role="img"
  aria-labelledby="lians-lotus-title lians-lotus-description"
>
  <title id="lians-lotus-title">Lians lotus</title>
  <desc id="lians-lotus-description">
    The nine-petal blue Lians lotus on a transparent background.
  </desc>
  <g id="lians-lotus" fill="var(--lians-blue, #1D3B7B)">
    <path
      id="petal-center"
      d="M402 111C357 161 332 225 332 297c0 69 26 130 70 179 44-49 70-110 70-179 0-72-25-136-70-186Z"
    />
    <path
      id="petal-upper-left"
      d="M268 130c29 10 53 27 72 49-11 25-18 51-22 77-21-18-44-33-67-44-1-30 5-59 17-82Z"
    />
    <path
      id="petal-upper-right"
      d="M531 126c12 24 19 54 19 85-24 11-45 26-63 45-4-27-12-52-23-77 18-22 40-40 67-53Z"
    />
    <path
      id="petal-middle-left"
      d="M145 203c73-1 132 31 173 72-2 75 12 137 50 186-74-17-134-56-175-112-34-47-49-97-48-146Z"
    />
    <path
      id="petal-middle-right"
      d="M659 203c-73-1-132 31-173 72 2 75-12 137-50 186 74-17 134-56 175-112 34-47 49-97 48-146Z"
    />
    <path
      id="petal-outer-left"
      d="M63 282c27-8 55-11 78-8 7 26 17 51 30 73l-67 14c-20-23-34-51-41-79Z"
    />
    <path
      id="petal-outer-right"
      d="M741 282c-27-8-55-11-78-8-7 26-17 51-30 73l67 14c20-23 34-51 41-79Z"
    />
    <path
      id="petal-base-left"
      d="M46 408c37-26 80-42 126-46 47 53 117 90 212 118-45 28-97 38-149 36-80-3-148-39-189-108Z"
    />
    <path
      id="petal-base-right"
      d="M758 408c-37-26-80-42-126-46-47 53-117 90-212 118 45 28 97 38 149 36 80-3 148-39 189-108Z"
    />
  </g>
</svg>
